<?xml version="1.0" encoding="UTF-8" standalone="no"?>
<!-- Created with Inkscape (http://www.inkscape.org/) -->

<svg
   version="1.1"
   id="svg2"
   xml:space="preserve"
   width="97.063011"
   height="86.552345"
   viewBox="0 0 97.063011 86.552345"
   sodipodi:docname="logo_polaffini.svg"
   inkscape:version="1.1.1 (3bf5ae0d25, 2021-09-20)"
   xmlns:inkscape="http://www.inkscape.org/namespaces/inkscape"
   xmlns:sodipodi="http://sodipodi.sourceforge.net/DTD/sodipodi-0.dtd"
   xmlns="http://www.w3.org/2000/svg"
   xmlns:svg="http://www.w3.org/2000/svg"><defs
     id="defs6"><clipPath
       clipPathUnits="userSpaceOnUse"
       id="clipPath98"><path
         d="M 0,0 H 73 V 65 H 0 Z"
         id="path96" /></clipPath></defs><sodipodi:namedview
     id="namedview4"
     pagecolor="#ffffff"
     bordercolor="#666666"
     borderopacity="1.0"
     inkscape:pageshadow="2"
     inkscape:pageopacity="0.0"
     inkscape:pagecheckerboard="0"
     showgrid="false"
     inkscape:zoom="4.8121169"
     inkscape:cx="55.484937"
     inkscape:cy="57.147407"
     inkscape:window-width="1920"
     inkscape:window-height="1027"
     inkscape:window-x="0"
     inkscape:window-y="32"
     inkscape:window-maximized="1"
     inkscape:current-layer="g8" /><g
     id="g8"
     inkscape:groupmode="layer"
     inkscape:label="polaffini"
     transform="matrix(1.3333333,0,0,1.3333333,0,2.1638087e-6)"><g
       id="g10"><g
         id="g12"><path
           d="M 3.184,60.809 3.219,59.68 3.254,58.555 3.289,57.434 3.328,56.312 3.41,54.086 3.449,52.977 3.48,51.871 3.516,50.77 3.551,49.672 3.578,48.578 3.605,47.488 3.625,46.406 3.641,45.332 3.648,44.266 3.656,43.203 3.645,42.152 3.625,41.109 3.598,40.078 3.562,39.059 3.512,38.047 3.453,37.047 3.371,36.059 3.285,35.078 3.18,34.113 3.066,33.152 2.941,32.203 2.801,31.262 2.656,30.328 2.496,29.395 2.16,27.543 1.977,26.617 1.789,25.684 1.598,24.75 1.41,23.805 1.207,22.852 1.008,21.895 0.613,19.973"
           style="fill:none;stroke:#ff00ff;stroke-width:1.22626;stroke-linecap:round;stroke-linejoin:round;stroke-miterlimit:10;stroke-dasharray:none;stroke-opacity:1"
           id="path14" /></g><g
         id="g16"><path
           d="m 12.98,62.98 0.016,-1.117 0.024,-2.234 0.003,-1.113 V 57.398 L 13.02,56.285 13.008,55.176 12.988,54.066 12.953,52.961 12.91,51.859 12.852,50.758 12.785,49.664 12.699,48.578 12.594,47.492 12.473,46.414 12.336,45.34 12.18,44.273 12.004,43.215 11.809,42.156 11.598,41.109 11.371,40.062 11.121,39.023 10.855,37.984 10.578,36.953 10.289,35.918 9.988,34.887 9.363,32.816 9.039,31.777 8.719,30.734 8.398,29.684 8.078,28.625 7.766,27.555 7.457,26.473 7.16,25.375 6.867,24.266 6.578,23.141 6.297,22 6.02,20.852 5.75,19.707"
           style="fill:none;stroke:#ff00ff;stroke-width:1.22626;stroke-linecap:round;stroke-linejoin:round;stroke-miterlimit:10;stroke-dasharray:none;stroke-opacity:1"
           id="path18" /></g><g
         id="g20"><path
           d="M 22.457,64.289 22.453,63.324 22.43,62.336 22.395,61.332 22.344,60.309 22.27,59.262 22.18,58.199 22.066,57.121 21.93,56.031 21.77,54.926 21.582,53.812 21.375,52.688 21.141,51.559 20.879,50.43 20.598,49.293 20.289,48.16 19.961,47.023 19.613,45.891 19.242,44.758 18.855,43.629 18.453,42.5 18.039,41.371 17.617,40.242 17.184,39.117 16.746,37.988 16.309,36.855 15.871,35.719 15.438,34.578 15.008,33.434 14.59,32.277 14.176,31.109 13.773,29.934 13.387,28.742 13.012,27.535 12.648,26.312 12.301,25.074 11.969,23.816 11.645,22.543 11.332,21.258 11.02,19.969 10.711,18.68"
           style="fill:none;stroke:#ff00ff;stroke-width:1.22626;stroke-linecap:round;stroke-linejoin:round;stroke-miterlimit:10;stroke-dasharray:none;stroke-opacity:1"
           id="path22" /></g><g
         id="g24"><path
           d="m 29.535,62.605 0.043,-0.835 0.035,-0.848 0.012,-0.863 -0.004,-0.875 -0.027,-0.895 -0.051,-0.91 -0.086,-0.926 -0.117,-0.949 -0.156,-0.969 -0.196,-0.992 -0.246,-1.012 -0.289,-1.035 -0.34,-1.058 -0.386,-1.079 -0.422,-1.093 -0.461,-1.114 -0.492,-1.121 -0.512,-1.14 -0.531,-1.157 -0.539,-1.16 -0.547,-1.168 -0.547,-1.172 -0.547,-1.183 -0.539,-1.192 -0.528,-1.199 -0.515,-1.207 -0.504,-1.223 -0.484,-1.234 -0.473,-1.246 -0.457,-1.262 -0.43,-1.281 -0.426,-1.297 -0.398,-1.316 -0.383,-1.34 -0.371,-1.359 -0.359,-1.383 -0.344,-1.399 -0.34,-1.402 -0.34,-1.41 -0.343,-1.406"
           style="fill:none;stroke:#ff00ff;stroke-width:1.22626;stroke-linecap:round;stroke-linejoin:round;stroke-miterlimit:10;stroke-dasharray:none;stroke-opacity:1"
           id="path26" /></g><g
         id="g28"><path
           d="m 35.938,60.484 0.054,-0.957 0.043,-0.968 0.024,-0.977 0.019,-0.992 -0.004,-1 -0.031,-1.008 -0.051,-1.02 L 35.906,52.539 35.785,51.508 35.617,50.477 35.406,49.445 35.141,48.418 34.828,47.395 34.461,46.379 34.039,45.363 33.578,44.355 33.062,43.34 32.52,42.316 31.949,41.289 31.352,40.25 30.75,39.191 30.145,38.113 29.543,37.016 28.949,35.898 28.367,34.746 27.797,33.57 27.246,32.367 26.711,31.141 26.203,29.879 25.707,28.59 25.23,27.273 24.77,25.926 24.332,24.547 23.91,23.141 23.496,21.711 23.082,20.266 22.68,18.805 21.496,14.398"
           style="fill:none;stroke:#ff00ff;stroke-width:1.22626;stroke-linecap:round;stroke-linejoin:round;stroke-miterlimit:10;stroke-dasharray:none;stroke-opacity:1"
           id="path30" /></g><g
         id="g32"><path
           d="m 42.559,59.121 0.027,-1.332 0.027,-1.34 0.008,-1.351 -0.004,-1.356 -0.023,-1.355 -0.043,-1.348 -0.063,-1.336 -0.097,-1.312 -0.125,-1.286 -0.161,-1.253 -0.195,-1.215 -0.234,-1.176 -0.27,-1.133 -0.32,-1.098 -0.356,-1.058 -0.39,-1.027 -0.43,-1.004 -0.457,-0.981 -0.496,-0.965 -0.516,-0.961 -0.535,-0.964 -0.558,-0.973 -0.559,-0.985 -0.582,-1.007 -0.578,-1.032 -0.578,-1.058 -0.578,-1.094 -0.575,-1.125 -0.57,-1.164 -0.562,-1.199 -0.555,-1.231 -0.551,-1.261 -0.539,-1.289 -0.543,-1.313 -0.531,-1.332 -0.531,-1.344 -0.52,-1.359 -0.519,-1.363 -0.512,-1.375 -0.504,-1.383"
           style="fill:none;stroke:#ff00ff;stroke-width:1.22626;stroke-linecap:round;stroke-linejoin:round;stroke-miterlimit:10;stroke-dasharray:none;stroke-opacity:1"
           id="path34" /></g><g
         id="g36"><path
           d="M 48.562,58.996 48.516,57.027 48.465,55.066 48.406,53.133 48.332,51.238 48.254,49.391 48.16,47.617 48.059,45.914 47.941,44.289 47.809,42.754 47.66,41.297 47.492,39.914 47.301,38.605 47.094,37.363 46.867,36.176 46.613,35.035 46.336,33.941 46.039,32.883 45.711,31.855 45.367,30.848 44.992,29.863 44.586,28.887 44.16,27.922 43.703,26.961 43.227,25.996 42.715,25.035 42.18,24.066 41.621,23.086 41.039,22.094 40.438,21.09 39.816,20.074 39.184,19.035 38.543,17.98 37.891,16.91 37.238,15.824 36.578,14.719 35.918,13.602 35.262,12.469 34.613,11.316 33.969,10.152 33.336,8.969"
           style="fill:none;stroke:#ff00ff;stroke-width:1.22626;stroke-linecap:round;stroke-linejoin:round;stroke-miterlimit:10;stroke-dasharray:none;stroke-opacity:1"
           id="path38" /></g><g
         id="g40"><path
           d="M 53.934,58.488 53.816,56.23 53.703,54.004 53.578,51.816 53.461,49.691 53.344,47.645 53.227,45.676 53.117,43.809 53,42.039 52.879,40.371 52.754,38.805 52.621,37.324 52.465,35.922 52.297,34.598 52.117,33.34 51.91,32.141 51.68,30.988 51.426,29.879 51.156,28.809 50.852,27.77 50.523,26.758 50.168,25.77 49.789,24.797 49.375,23.84 l -0.441,-0.945 -0.469,-0.938 -0.496,-0.93 -0.52,-0.929 -0.551,-0.926 -0.57,-0.93 -0.59,-0.93 L 45.121,16.375 44.488,15.43 43.832,14.48 43.164,13.527 42.488,12.559 41.797,11.586 41.102,10.602 40.406,9.605 39.703,8.598 39.008,7.582"
           style="fill:none;stroke:#ff00ff;stroke-width:1.22626;stroke-linecap:round;stroke-linejoin:round;stroke-miterlimit:10;stroke-dasharray:none;stroke-opacity:1"
           id="path42" /></g><g
         id="g44"><path
           d="M 59.574,57.289 59.434,55.172 59.297,53.086 59.164,51.035 59.039,49.031 58.914,47.078 58.797,45.184 58.684,43.355 58.574,41.594 58.453,39.906 58.332,38.289 58.203,36.738 58.059,35.254 57.906,33.836 57.727,32.473 57.531,31.164 57.312,29.906 57.074,28.691 56.801,27.516 56.504,26.375 56.18,25.266 55.828,24.188 55.449,23.133 55.039,22.102 54.598,21.09 54.137,20.094 53.656,19.117 53.145,18.152 52.617,17.203 52.066,16.262 51.5,15.332 50.914,14.406 50.312,13.492 49.699,12.578 49.066,11.672 48.426,10.77 47.773,9.863 47.113,8.957 46.441,8.051 45.766,7.141 45.09,6.223"
           style="fill:none;stroke:#ff00ff;stroke-width:1.22626;stroke-linecap:round;stroke-linejoin:round;stroke-miterlimit:10;stroke-dasharray:none;stroke-opacity:1"
           id="path46" /></g><g
         id="g48"><path
           d="M 65.73,56.199 65.605,54.266 65.48,52.363 65.367,50.496 65.246,48.66 65.133,46.863 65.02,45.109 64.906,43.395 64.789,41.719 64.66,40.086 64.531,38.492 64.387,36.941 64.238,35.422 64.066,33.945 63.883,32.504 63.684,31.098 63.469,29.727 63.23,28.391 62.969,27.086 62.684,25.816 62.371,24.578 62.035,23.367 61.664,22.188 61.27,21.035 60.852,19.906 60.414,18.801 59.953,17.719 59.469,16.656 58.973,15.617 58.457,14.594 57.93,13.586 57.387,12.598 56.832,11.621 56.266,10.656 55.691,9.703 55.105,8.762 54.516,7.828 53.914,6.898 53.312,5.973 52.703,5.051 52.086,4.129"
           style="fill:none;stroke:#ff00ff;stroke-width:1.22626;stroke-linecap:round;stroke-linejoin:round;stroke-miterlimit:10;stroke-dasharray:none;stroke-opacity:1"
           id="path50" /></g><g
         id="g52"><path
           d="M 72.184,55.141 72.086,53.305 71.996,51.496 71.91,49.719 71.816,47.977 71.723,46.273 71.625,44.602 71.523,42.965 71.41,41.363 71.285,39.789 71.145,38.246 70.996,36.723 70.832,35.227 70.66,33.754 70.465,32.301 70.262,30.867 70.039,29.449 69.805,28.051 69.555,26.672 69.289,25.312 69,23.977 68.699,22.656 68.371,21.355 68.023,20.078 67.664,18.816 67.289,17.574 66.898,16.352 66.496,15.145 66.078,13.953 65.648,12.777 65.207,11.617 64.762,10.469 64.305,9.332 63.84,8.207 63.371,7.094 62.887,5.988 62.398,4.898 61.91,3.816 61.41,2.738 60.906,1.672 60.395,0.613"
           style="fill:none;stroke:#ff00ff;stroke-width:1.22626;stroke-linecap:round;stroke-linejoin:round;stroke-miterlimit:10;stroke-dasharray:none;stroke-opacity:1"
           id="path54" /></g><g
         id="g56"><path
           d="m 3.184,60.809 1.382,0.296 1.387,0.305 1.395,0.305 1.398,0.312 1.41,0.317 1.41,0.32 1.414,0.316 1.426,0.313 1.418,0.297 1.399,0.265 1.382,0.219 1.344,0.156 1.289,0.071 1.219,-0.012 1.156,-0.098 1.09,-0.171 1.035,-0.223 0.989,-0.266 0.953,-0.293 0.937,-0.312 0.918,-0.321 1.809,-0.64 0.906,-0.313 0.914,-0.308 0.918,-0.297 0.926,-0.289 0.93,-0.274 0.941,-0.257 0.949,-0.243 0.953,-0.222 0.949,-0.203 0.95,-0.176 0.945,-0.145 0.934,-0.117 0.918,-0.086 0.902,-0.055 0.879,-0.023 h 0.863 l 0.832,0.012 0.813,0.015 0.796,0.012 h 0.786 l 0.773,-0.023 0.766,-0.051 0.761,-0.074 0.762,-0.098 0.758,-0.121 0.766,-0.141 0.773,-0.156 0.785,-0.168 0.793,-0.172 0.801,-0.18 0.82,-0.175 0.824,-0.176 0.844,-0.172 0.852,-0.168 0.863,-0.164 0.871,-0.156 0.883,-0.156 0.887,-0.153 0.898,-0.148 0.902,-0.145 0.911,-0.148 0.914,-0.145 0.918,-0.148 0.922,-0.149 0.929,-0.152 0.926,-0.156 0.934,-0.16"
           style="fill:none;stroke:#ff00ff;stroke-width:1.22626;stroke-linecap:round;stroke-linejoin:round;stroke-miterlimit:10;stroke-dasharray:none;stroke-opacity:1"
           id="path58" /></g><g
         id="g60"><path
           d="m 3.371,55.199 1.379,0.305 1.379,0.308 1.383,0.309 2.758,0.633 1.378,0.32 2.75,0.649 1.364,0.32 1.355,0.312 1.336,0.293 1.305,0.258 1.281,0.211 1.231,0.145 1.187,0.074 1.129,-0.012 1.078,-0.086 1.035,-0.16 0.989,-0.215 0.968,-0.269 0.938,-0.305 0.929,-0.336 0.926,-0.355 0.918,-0.379 0.918,-0.391 0.918,-0.402 0.93,-0.414 0.941,-0.422 0.938,-0.43 0.941,-0.441 0.945,-0.453 0.938,-0.461 0.934,-0.469 0.921,-0.473 0.903,-0.476 0.879,-0.477 0.859,-0.465 0.832,-0.453 0.805,-0.437 0.781,-0.414 0.762,-0.387 0.742,-0.363 0.734,-0.332 0.723,-0.309 0.719,-0.277 0.718,-0.246 0.723,-0.223 0.734,-0.192 0.739,-0.167 0.75,-0.145 0.769,-0.117 0.778,-0.094 0.797,-0.074 0.812,-0.055 0.828,-0.047 0.836,-0.035 0.856,-0.027 0.867,-0.024 0.879,-0.023 0.894,-0.027 0.899,-0.032 0.906,-0.039 0.918,-0.043 0.922,-0.054 0.933,-0.063 0.934,-0.074 0.945,-0.082 0.945,-0.094 0.954,-0.105 0.957,-0.118"
           style="fill:none;stroke:#ff00ff;stroke-width:1.22626;stroke-linecap:round;stroke-linejoin:round;stroke-miterlimit:10;stroke-dasharray:none;stroke-opacity:1"
           id="path62" /></g><g
         id="g64"><path
           d="m 3.551,49.672 1.359,0.308 1.356,0.313 1.351,0.312 1.336,0.313 1.332,0.312 1.317,0.313 1.308,0.316 1.293,0.313 1.274,0.308 1.265,0.305 1.238,0.293 1.227,0.274 1.203,0.25 1.172,0.21 1.148,0.161 1.122,0.105 1.082,0.035 1.058,-0.035 1.02,-0.109 0.996,-0.18 0.98,-0.246 0.961,-0.305 0.946,-0.359 0.945,-0.402 0.949,-0.446 0.938,-0.484 0.941,-0.52 0.949,-0.55 0.945,-0.582 0.95,-0.614 0.945,-0.64 0.938,-0.668 0.929,-0.696 0.899,-0.707 0.882,-0.718 0.868,-0.723 0.836,-0.711 0.812,-0.695 0.789,-0.664 0.762,-0.633 0.75,-0.586 0.738,-0.543 0.727,-0.5 0.726,-0.453 0.715,-0.403 0.723,-0.351 0.73,-0.305 0.731,-0.262 0.742,-0.218 0.754,-0.172 0.773,-0.133 0.778,-0.094 0.796,-0.066 0.813,-0.039 0.828,-0.016 0.836,0.004 0.852,0.02 0.863,0.031 0.875,0.035 0.887,0.039 0.898,0.031 0.91,0.032 0.914,0.015 0.922,0.008 0.93,-0.004 0.941,-0.019 0.942,-0.036 0.953,-0.05 0.961,-0.063 0.965,-0.082"
           style="fill:none;stroke:#ff00ff;stroke-width:1.22626;stroke-linecap:round;stroke-linejoin:round;stroke-miterlimit:10;stroke-dasharray:none;stroke-opacity:1"
           id="path66" /></g><g
         id="g68"><path
           d="m 3.648,44.266 1.313,0.316 1.301,0.313 1.281,0.312 1.262,0.309 1.242,0.304 1.223,0.301 1.203,0.293 1.183,0.289 1.153,0.277 1.14,0.27 1.11,0.254 1.101,0.242 1.07,0.219 1.059,0.195 1.043,0.16 1.023,0.125 1.016,0.078 1,0.028 0.984,-0.031 0.981,-0.094 0.969,-0.16 0.961,-0.231 0.961,-0.293 0.961,-0.359 0.96,-0.418 0.969,-0.481 0.961,-0.535 0.961,-0.586 0.973,-0.633 0.968,-0.675 0.973,-0.723 0.961,-0.754 0.957,-0.785 0.934,-0.805 0.925,-0.816 0.907,-0.817 0.883,-0.804 0.859,-0.785 0.836,-0.746 0.82,-0.708 0.797,-0.664 0.781,-0.613 0.766,-0.558 0.758,-0.512 0.754,-0.457 0.75,-0.414 0.75,-0.364 0.754,-0.316 0.765,-0.273 0.766,-0.239 0.781,-0.195 0.789,-0.168 0.805,-0.133 0.816,-0.105 0.824,-0.078 0.84,-0.059 0.848,-0.035 0.863,-0.024 0.871,-0.011 0.879,-0.004 0.887,0.004 h 0.902 l 0.903,0.004 0.918,-0.004 0.929,-0.008 0.926,-0.02 0.941,-0.031 0.946,-0.043 0.957,-0.054 0.961,-0.071"
           style="fill:none;stroke:#ff00ff;stroke-width:1.22626;stroke-linecap:round;stroke-linejoin:round;stroke-miterlimit:10;stroke-dasharray:none;stroke-opacity:1"
           id="path70" /></g><g
         id="g72"><path
           d="m 3.562,39.059 1.227,0.316 1.199,0.313 1.172,0.304 1.149,0.293 1.121,0.285 1.101,0.274 1.067,0.265 1.043,0.246 1.019,0.235 0.996,0.222 0.973,0.2 0.957,0.183 0.945,0.164 0.922,0.141 0.918,0.117 0.902,0.082 0.903,0.055 0.898,0.019 0.895,-0.023 0.902,-0.062 0.899,-0.114 0.91,-0.164 0.918,-0.215 0.925,-0.269 0.938,-0.332 0.953,-0.387 0.965,-0.449 0.973,-0.508 0.992,-0.566 1,-0.622 1.011,-0.679 1.02,-0.731 1.023,-0.773 1.024,-0.809 1.019,-0.836 1.012,-0.847 0.988,-0.844 0.969,-0.824 0.938,-0.785 0.91,-0.743 0.879,-0.691 0.855,-0.637 0.82,-0.586 0.813,-0.527 0.789,-0.484 0.785,-0.438 0.774,-0.39 0.773,-0.36 0.777,-0.32 0.782,-0.289 0.785,-0.262 0.797,-0.234 0.804,-0.211 0.821,-0.184 0.828,-0.164 0.84,-0.148 0.855,-0.129 0.86,-0.117 0.875,-0.102 0.886,-0.094 0.895,-0.09 0.906,-0.078 0.914,-0.078 0.926,-0.078 0.933,-0.078 0.942,-0.078 0.949,-0.086 0.957,-0.086 0.961,-0.094 L 69,23.977"
           style="fill:none;stroke:#ff00ff;stroke-width:1.22626;stroke-linecap:round;stroke-linejoin:round;stroke-miterlimit:10;stroke-dasharray:none;stroke-opacity:1"
           id="path74" /></g><g
         id="g76"><path
           d="m 3.18,34.113 1.105,0.301 1.07,0.289 1.04,0.274 1.015,0.261 0.985,0.242 0.957,0.227 0.937,0.211 0.91,0.191 0.887,0.176 0.871,0.153 0.855,0.136 0.844,0.114 0.832,0.093 0.821,0.074 0.816,0.051 0.816,0.024 0.817,0.004 0.82,-0.024 0.817,-0.055 0.828,-0.082 0.839,-0.113 0.852,-0.144 0.867,-0.188 0.879,-0.223 0.895,-0.269 0.914,-0.313 0.941,-0.363 0.957,-0.414 0.977,-0.469 1,-0.527 1.023,-0.586 1.043,-0.644 1.059,-0.7 1.078,-0.754 1.082,-0.793 1.086,-0.812 1.074,-0.824 1.055,-0.809 1.027,-0.773 0.984,-0.731 0.95,-0.672 0.91,-0.617 0.879,-0.562 0.855,-0.512 0.832,-0.469 0.805,-0.43 0.801,-0.398 0.789,-0.367 0.789,-0.34 0.789,-0.316 0.793,-0.301 0.797,-0.281 0.812,-0.262 0.813,-0.25 0.828,-0.235 0.84,-0.218 0.859,-0.207 0.867,-0.199 0.883,-0.188 0.895,-0.18 0.91,-0.175 0.922,-0.172 0.941,-0.172 0.953,-0.172 0.961,-0.168 0.973,-0.176 0.988,-0.176 0.996,-0.175 1,-0.18 1.004,-0.18"
           style="fill:none;stroke:#ff00ff;stroke-width:1.22626;stroke-linecap:round;stroke-linejoin:round;stroke-miterlimit:10;stroke-dasharray:none;stroke-opacity:1"
           id="path78" /></g><g
         id="g80"><path
           d="m 2.496,29.395 0.957,0.242 0.938,0.23 0.91,0.215 0.887,0.191 0.863,0.176 0.844,0.153 0.824,0.132 0.812,0.114 0.793,0.093 0.781,0.075 0.778,0.054 0.765,0.032 0.766,0.015 0.762,-0.008 0.762,-0.023 0.765,-0.051 0.77,-0.066 0.777,-0.086 0.785,-0.11 0.793,-0.128 0.801,-0.157 0.824,-0.179 0.832,-0.204 0.844,-0.238 0.867,-0.265 0.883,-0.297 0.906,-0.336 0.922,-0.379 0.949,-0.418 0.965,-0.473 0.992,-0.519 1.012,-0.567 1.035,-0.621 1.047,-0.664 1.059,-0.695 1.062,-0.715 1.059,-0.719 1.039,-0.703 1.015,-0.672 0.989,-0.633 0.961,-0.582 0.925,-0.535 0.903,-0.492 0.875,-0.449 0.859,-0.414 0.836,-0.387 0.824,-0.359 0.813,-0.34 0.812,-0.321 0.805,-0.312 0.805,-0.297 0.812,-0.289 0.82,-0.281 0.829,-0.274 0.839,-0.265 0.852,-0.262 0.867,-0.254 0.879,-0.25 0.902,-0.25 0.914,-0.246 0.938,-0.242 0.957,-0.25 0.973,-0.254 0.992,-0.258 1.008,-0.266 1.027,-0.277 1.047,-0.281 1.058,-0.293 1.067,-0.297 1.078,-0.297"
           style="fill:none;stroke:#ff00ff;stroke-width:1.22626;stroke-linecap:round;stroke-linejoin:round;stroke-miterlimit:10;stroke-dasharray:none;stroke-opacity:1"
           id="path82" /></g><g
         id="g84"><path
           d="m 1.598,24.75 0.836,0.133 0.824,0.129 0.808,0.113 0.797,0.09 0.774,0.074 0.769,0.055 0.754,0.031 0.746,0.016 0.735,-0.004 0.734,-0.028 0.73,-0.047 0.731,-0.058 0.73,-0.082 0.735,-0.098 0.738,-0.117 0.746,-0.133 0.75,-0.148 0.754,-0.168 0.766,-0.188 0.777,-0.203 0.789,-0.222 0.797,-0.247 0.812,-0.261 0.825,-0.285 0.836,-0.309 0.855,-0.332 0.867,-0.359 0.883,-0.391 0.891,-0.418 0.914,-0.449 0.926,-0.477 0.941,-0.512 0.953,-0.531 0.961,-0.554 1.93,-1.125 0.961,-0.555 0.949,-0.535 0.941,-0.508 0.922,-0.477 0.903,-0.441 0.89,-0.41 0.875,-0.375 0.856,-0.344 0.851,-0.32 0.836,-0.301 0.832,-0.281 0.832,-0.274 0.828,-0.265 0.824,-0.258 0.833,-0.254 0.835,-0.254 0.848,-0.254 0.852,-0.254 0.863,-0.258 0.883,-0.257 0.898,-0.266 0.906,-0.266 0.934,-0.277 0.953,-0.281 0.973,-0.293 0.996,-0.305 1.019,-0.32 1.051,-0.34 1.067,-0.36 L 58.316,7.68 59.43,7.281 60.566,6.863 61.723,6.43 62.887,5.988"
           style="fill:none;stroke:#ff00ff;stroke-width:1.22626;stroke-linecap:round;stroke-linejoin:round;stroke-miterlimit:10;stroke-dasharray:none;stroke-opacity:1"
           id="path86" /></g><g
         id="g88"><path
           d="m 0.613,19.973 0.754,-0.008 0.75,-0.012 0.746,-0.019 0.731,-0.032 0.722,-0.047 0.723,-0.066 0.711,-0.082 0.707,-0.098 0.707,-0.113 0.707,-0.133 0.707,-0.148 0.711,-0.164 0.707,-0.18 0.715,-0.191 0.723,-0.211 0.726,-0.227 0.731,-0.238 0.738,-0.258 0.746,-0.269 0.758,-0.286 0.762,-0.296 0.773,-0.317 0.785,-0.328 0.789,-0.34 0.797,-0.359 0.809,-0.371 0.816,-0.383 0.832,-0.399 0.832,-0.414 0.844,-0.422 0.848,-0.433 0.859,-0.438 0.863,-0.441 0.856,-0.438 0.863,-0.429 0.863,-0.414 L 29.172,10.57 30.02,10.199 30.867,9.852 31.699,9.531 32.52,9.238 33.336,8.969 34.148,8.727 34.953,8.508 35.762,8.301 36.566,8.109 37.375,7.93 38.188,7.754 39.008,7.582 39.84,7.406 40.68,7.23 41.535,7.051 42.398,6.859 43.281,6.66 44.176,6.449 45.09,6.223 46.02,5.984 46.973,5.73 47.949,5.457 48.941,5.164 49.965,4.848 51.012,4.504 52.086,4.129 53.191,3.727 54.328,3.289 55.488,2.816 56.676,2.309 57.895,1.766 59.137,1.199 60.395,0.613"
           style="fill:none;stroke:#ff00ff;stroke-width:1.22626;stroke-linecap:round;stroke-linejoin:round;stroke-miterlimit:10;stroke-dasharray:none;stroke-opacity:1"
           id="path90" /></g><g
         id="g92"><g
           id="g94" /><g
           id="g148"><g
             clip-path="url(#clipPath98)"
             opacity="0.522796"
             id="g146"><g
               id="g144"><g
                 id="g102"><path
                   d="m 49.879,43.387 c 0.176,-0.282 -0.234,-2.227 -0.649,-3.082 -0.203,-0.418 -1.304,-1.817 -2.445,-3.106 -2.242,-2.527 -3.226,-4.183 -3.562,-5.98 -0.325,-1.754 -0.239,-2.672 0.359,-3.785 0.754,-1.411 0.969,-2.688 0.922,-5.52 -0.043,-2.715 0.133,-3.508 0.945,-4.281 l 0.52,-0.5 1.023,0.355 c 5.57,1.938 9.742,5.938 11.43,10.965 1.707,5.074 0.933,11.113 -1.625,12.695 -0.547,0.34 -6.461,2.426 -6.875,2.426 -0.086,0 -0.106,-0.086 -0.043,-0.187 z"
                   style="fill:#00c800;fill-opacity:1;fill-rule:nonzero;stroke:#00c800;stroke-width:1.13386;stroke-linecap:round;stroke-linejoin:round;stroke-miterlimit:4;stroke-dasharray:none;stroke-opacity:1"
                   id="path100" /></g><g
                 id="g106"><path
                   d="m 40.332,26.773 c -3.59,-0.972 -7.91,-0.992 -11.379,-0.054 l -1.433,0.383 -0.942,-0.477 c -1.734,-0.879 -5.371,-3.441 -6.488,-4.57 -1.613,-1.633 -1.61,-1.598 -0.266,-2.2 7.43,-3.335 16.465,-4.582 23.711,-3.269 l 1.145,0.207 -0.559,1.09 c -0.555,1.074 -0.566,1.14 -0.601,4.25 -0.024,2.644 -0.094,3.312 -0.403,4.097 -0.449,1.129 -0.543,1.149 -2.785,0.543 z"
                   style="fill:#9d9bff;fill-opacity:1;fill-rule:nonzero;stroke:#9d9bff;stroke-width:1.13386;stroke-linecap:round;stroke-linejoin:round;stroke-miterlimit:4;stroke-dasharray:none;stroke-opacity:1"
                   id="path104" /></g><g
                 id="g110"><path
                   d="m 14.359,41.598 c -0.73,-0.129 -1.73,-0.496 -2.324,-0.856 -1.078,-0.64 -2.367,-2.031 -3.242,-3.5 -0.672,-1.125 -0.957,-3.828 -0.586,-5.574 0.52,-2.465 1.664,-4.426 3.844,-6.617 1.621,-1.629 3.066,-2.715 5.316,-4.004 l 0.43,-0.25 0.23,0.348 c 1.137,1.714 3.891,3.886 7.571,5.98 0.8,0.453 1.484,0.848 1.523,0.883 0.043,0.031 0.195,0.539 0.348,1.133 0.629,2.402 0.918,5.031 0.754,6.902 -0.141,1.613 -0.137,1.609 -0.805,1.859 -0.309,0.118 -1.746,0.7 -3.188,1.293 -3.097,1.282 -4.687,1.84 -6.191,2.176 -1.23,0.277 -2.848,0.375 -3.68,0.227 z"
                   style="fill:#ff8119;fill-opacity:1;fill-rule:nonzero;stroke:#ff8119;stroke-width:1.13386;stroke-linecap:round;stroke-linejoin:round;stroke-miterlimit:4;stroke-dasharray:none;stroke-opacity:1"
                   id="path108" /></g><g
                 id="g114"><path
                   d="m 37.27,45.457 c -2.368,-1.168 -4.852,-3.426 -5.747,-5.223 -0.371,-0.742 -0.613,-1.441 -0.546,-1.55 0.066,-0.114 0.734,-0.289 1.48,-0.391 1.641,-0.5 2.582,-1.668 -0.363,-1.785 -1.055,0.176 -2.168,0.39 -2.465,0.472 -0.512,0.149 -0.539,0.067 -0.438,-1.515 0.059,-0.922 -0.097,-2.809 -0.343,-4.195 -0.25,-1.387 -0.469,-2.7 -0.493,-2.918 -0.058,-0.602 2.981,-1.286 5.813,-1.305 3.941,-0.031 8.121,0.918 7.894,1.789 -0.218,0.832 0.415,3.836 1.106,5.25 0.375,0.762 1.586,2.383 2.691,3.594 2.2,2.414 2.993,3.812 3,5.293 l 0.012,0.961 -3.933,1.101 c -5.497,1.543 -5.403,1.535 -7.668,0.422 z"
                   style="fill:#fffd00;fill-opacity:1;fill-rule:nonzero;stroke:#fffd00;stroke-width:1.13386;stroke-linecap:round;stroke-linejoin:round;stroke-miterlimit:4;stroke-dasharray:none;stroke-opacity:1"
                   id="path112" /></g><g
                 id="g118"><path
                   d="m 43.539,56.254 c -3.207,-0.777 -6.824,-4.047 -7.207,-6.512 -0.121,-0.781 0.059,-0.898 1.996,-1.304 3.719,-0.782 10.43,-2.684 15.637,-4.434 l 2.379,-0.801 0.527,0.363 c 0.582,0.399 1.254,1.27 1.5,1.934 0.637,1.734 -0.437,4.301 -2.719,6.48 -3.464,3.309 -8.609,5.125 -12.113,4.274 z"
                   style="fill:#de87cd;fill-opacity:1;fill-rule:nonzero;stroke:#de87cd;stroke-width:1.13386;stroke-linecap:round;stroke-linejoin:round;stroke-miterlimit:4;stroke-dasharray:none;stroke-opacity:1"
                   id="path116" /></g><g
                 id="g122"><path
                   d="m 26.199,48.113 c -2.097,-0.179 -3.359,-0.906 -4.058,-2.332 -0.715,-1.465 -0.223,-2.754 1.578,-4.117 0.492,-0.371 1.332,-0.894 1.867,-1.16 0.957,-0.481 3.785,-1.543 4.098,-1.543 0.089,0 0.273,0.312 0.402,0.695 0.598,1.727 2.215,3.766 4.078,5.145 0.496,0.371 1.504,0.988 2.246,1.375 l 1.34,0.699 -1.371,0.289 c -2.031,0.426 -4.758,0.801 -6.406,0.883 -0.801,0.039 -1.758,0.086 -2.121,0.109 -0.36,0.024 -1.106,0.004 -1.653,-0.043 z"
                   style="fill:#d2641e;fill-opacity:1;fill-rule:nonzero;stroke:#d2641e;stroke-width:1.13386;stroke-linecap:round;stroke-linejoin:round;stroke-miterlimit:4;stroke-dasharray:none;stroke-opacity:1"
                   id="path120" /></g><g
                 id="g126"><path
                   d="m 56.379,42.336 c 0,0 -29.379,10.695 -34.195,5.141 C 17.371,41.926 27.055,37.898 34.664,37.09 25.48,36.797 14.457,49.32 7.793,37.07 3.938,24.566 21.336,15.352 37.289,15.242 c 15.945,-0.113 22.441,9.442 22.844,17.684 0.406,8.246 -3.391,9.191 -3.754,9.41 0,0 4.242,1.801 2.601,6.293 -1.64,4.488 -8.406,8.957 -14.21,8.613 -5.805,-0.344 -10.938,-7.168 -8.754,-9.012"
                   style="fill:none;stroke:#030000;stroke-width:1.43598;stroke-linecap:butt;stroke-linejoin:miter;stroke-miterlimit:4;stroke-dasharray:none;stroke-opacity:1"
                   id="path124" /></g><g
                 transform="matrix(1,-0.267949,0.267949,1,0,0)"
                 id="g130"><path
                   d="m 11.74,23.435 c 0.694,3.651 6.993,9.268 6.993,9.268 0,0 0.437,5.922 -1.853,10.023"
                   style="fill:none;stroke:#000000;stroke-width:0.821417;stroke-linecap:butt;stroke-linejoin:miter;stroke-miterlimit:4;stroke-dasharray:1.64284, 1.64284;stroke-dashoffset:0;stroke-opacity:1"
                   id="path128" /></g><g
                 transform="matrix(1,-0.267949,0.267949,1,0,0)"
                 id="g134"><path
                   d="m 18.733,32.703 c 7.95,-0.76 14.098,4.067 14.098,4.067 3.994,-3.008 1.451,-8.33 5.883,-9.869"
                   style="fill:none;stroke:#000000;stroke-width:0.821417;stroke-linecap:butt;stroke-linejoin:miter;stroke-miterlimit:4;stroke-dasharray:1.64284, 1.64284;stroke-dashoffset:0;stroke-opacity:1"
                   id="path132" /></g><g
                 transform="matrix(1,-0.267949,0.267949,1,0,0)"
                 id="g138"><path
                   d="m 32.831,36.77 c -3.305,8.427 4.751,10.917 2.195,16.666"
                   style="fill:none;stroke:#000000;stroke-width:0.821417;stroke-linecap:butt;stroke-linejoin:miter;stroke-miterlimit:4;stroke-dasharray:1.64284, 1.64284;stroke-dashoffset:0;stroke-opacity:1"
                   id="path136" /></g><g
                 transform="matrix(1,-0.267949,0.267949,1,0,0)"
                 id="g142"><path
                   d="m 18.628,43.519 c -0.113,4.067 2.72,7.619 6.387,10.102"
                   style="fill:none;stroke:#000000;stroke-width:0.821417;stroke-linecap:butt;stroke-linejoin:miter;stroke-miterlimit:4;stroke-dasharray:1.64284, 1.64284;stroke-dashoffset:0;stroke-opacity:1"
                   id="path140" /></g></g></g></g></g></g></g></svg>
